# xmcd
#
# Track frame offsets:
#	150
#	24112
#	42608
#	50352
#	87291
#	104610
#	123393
#	149614
#	171288
#	197577
#	214367
#	241859
#
# Disc length: 4440 seconds
#
# Revision: 0
# Processed by: cddbd v1.5.2PL0 Copyright (c) Steve Scherf et al.
# Submitted via: audiograbber 1.81.03
#
DISCID=ac11560c
DTITLE=(etre) - A Post-Fordist Parade in the Strike of Events
DYEAR=2006
DGENRE=Electronic
TTITLE0=Anatomy Of This Faded Flower
TTITLE1=From The Parallel Line, Before And After Me
TTITLE2=________________
TTITLE3=Dogs From My Childhood: Multiple White
TTITLE4=Luego Existe
TTITLE5=Don't Ask Me Why Rain Becomes Hail
TTITLE6=Considering The Hypnosis Of The Stone
TTITLE7=Naturalist Tokyo 3.0
TTITLE8=And You Are Free In The Icon Of Neurotic Realism
TTITLE9=What Are We Doing Here?
TTITLE10=When You Cry For The First Time On This Earth
TTITLE11=Search and Destroy White Calligraphy
EXTD=www.baskaru.com
EXTT0=
EXTT1=
EXTT2=
EXTT3=
EXTT4=
EXTT5=
EXTT6=
EXTT7=
EXTT8=
EXTT9=
EXTT10=
EXTT11=
PLAYORDER=
